<?xml version="1.0" encoding="UTF-8"?>
<svg width="363px" height="109px" viewBox="0 0 363 109" version="1.1" xmlns="http://www.w3.org/2000/svg" xmlns:xlink="http://www.w3.org/1999/xlink">
    <!-- Generator: Sketch 40.3 (33839) - http://www.bohemiancoding.com/sketch -->
    <title>nature daily logo</title>
    <desc>Created with Sketch.</desc>
    <defs></defs>
    <g id="Style-Guide" stroke="none" stroke-width="1" fill="none" fill-rule="evenodd">
        <g id="nature-daily-logo">
            <rect id="Rectangle-5" fill="#B70C26" x="-99" y="-1" width="560" height="112"></rect>
            <rect id="Rectangle-5" fill="#B70C26" x="-106" y="-1" width="560" height="112"></rect>
            <g id="daily-icon" transform="translate(84.000000, 40.000000)" fill="#FFFFFF">
                <path d="M123.070312,18.6953125 L123.070312,15.640625 C122.627602,11.9218564 120.502623,9.70833688 116.695312,9 C112.533833,9.17708422 110.364584,12.09893 110.1875,17.765625 C110.1875,23.2552358 112.356749,26 116.695312,26 C120.76825,25.9114579 122.893228,23.4765864 123.070312,18.6953125 L123.070312,18.6953125 Z M124.929688,27.1953125 L123.070312,27.1953125 L123.070312,23.4765625 C121.742181,26.2213679 119.35158,27.59375 115.898438,27.59375 C111.028621,27.3281237 108.505209,24.0521148 108.328125,17.765625 C108.505209,11.1249668 111.161433,7.67187633 116.296875,7.40625 C119.395849,7.49479211 121.653639,8.91144461 123.070312,11.65625 L123.070312,0.6328125 L124.929688,0.6328125 L124.929688,27.1953125 Z M143.921875,19.4921875 L143.921875,15.640625 C143.30208,16.7031303 141.132831,17.455727 137.414062,17.8984375 C132.898415,18.2526059 130.773436,19.7577992 131.039062,22.4140625 C130.861978,24.8932416 132.588524,26.0885421 136.21875,26 C141.000024,25.8229158 143.567707,23.6536666 143.921875,19.4921875 L143.921875,19.4921875 Z M131.570312,13.6484375 L129.710938,12.984375 C130.507816,9.1770643 133.341121,7.31770789 138.210938,7.40625 C143.523464,7.22916578 146.046876,9.53122609 145.78125,14.3125 L145.78125,22.9453125 C145.692708,24.8046968 146.046871,26.1770789 146.84375,27.0625 L144.851562,27.0625 C144.143226,26.265621 143.789062,25.0703205 143.789062,23.4765625 C142.372389,26.1328258 139.539084,27.5052079 135.289062,27.59375 C131.304668,27.5052079 129.26823,25.7786627 129.179688,22.4140625 C129.179688,18.8723781 131.526018,16.8359402 136.21875,16.3046875 C140.645855,15.9505191 143.169268,15.2421928 143.789062,14.1796875 C144.054689,10.549461 142.195332,8.82291578 138.210938,9 C134.315085,8.91145789 132.101565,10.4609216 131.570312,13.6484375 L131.570312,13.6484375 Z M150.695312,27.1953125 L152.6875,27.1953125 L152.6875,7.8046875 L150.695312,7.8046875 L150.695312,27.1953125 Z M150.695312,3.5546875 L152.6875,3.5546875 L152.6875,0.6328125 L150.695312,0.6328125 L150.695312,3.5546875 Z M157.46875,27.1953125 L159.460938,27.1953125 L159.460938,0.765625 L157.46875,0.765625 L157.46875,27.1953125 Z M177.921875,7.8046875 L180.046875,7.8046875 L171.28125,28.2578125 C169.776034,32.3307495 168.093759,34.1901059 166.234375,33.8359375 C164.817701,33.8359375 163.755212,33.5703152 163.046875,33.0390625 L163.3125,31.9765625 C164.020837,32.2421888 164.817704,32.3307296 165.703125,32.2421875 C167.208341,32.5963559 168.580723,31.0026219 169.820312,27.4609375 C169.908855,27.3723954 169.997395,27.1953138 170.085938,26.9296875 C170.17448,26.7526033 170.26302,26.5755217 170.351562,26.3984375 L162.25,7.8046875 L164.375,7.8046875 L171.148438,24.671875 L177.921875,7.8046875 Z" id="paragraph"></path>
                <g id="Group-2" transform="translate(0.000000, 3.581019)">
                    <path d="M19.2499824,5.98935185 C19.995143,6.99675926 20.1193365,9.1375 20.1193365,10.6486111 L20.1193365,16.8189815 C20.1193365,22.2337963 20.1193365,22.1078704 21.982238,22.6115741 C22.4790118,22.7375 23.0999789,22.7375 23.0999789,23.1152778 C23.0999789,23.3671296 22.7273986,23.4930556 22.2306249,23.4930556 C21.7338511,23.4930556 19.2499824,23.3671296 18.1322415,23.3671296 C17.0145006,23.3671296 14.4064385,23.4930556 13.7854713,23.4930556 C13.0403107,23.4930556 12.6677304,23.4930556 12.6677304,23.2412037 C12.6677304,22.8634259 13.5370844,22.8634259 14.282245,22.6115741 C15.1515991,22.3597222 15.6483728,22.1078704 15.8967597,20.974537 C16.0209531,19.8412037 16.0209531,18.2041667 16.0209531,14.9300926 C16.0209531,10.900463 16.0209531,8.6337963 15.1515991,7.50046296 C14.282245,6.36712963 13.2886976,6.11527778 11.6741829,6.11527778 C10.0596682,6.11527778 8.56934702,7.24861111 8.07257328,8.25601852 C7.32741267,9.51527778 7.32741267,12.2856481 7.32741267,14.9300926 C7.32741267,18.4560185 7.32741267,20.0930556 7.57579954,21.3523148 C7.69999298,21.9819444 8.19676672,22.3597222 8.81773389,22.6115741 C9.31450763,22.8634259 10.3080551,22.8634259 10.3080551,23.2412037 C10.3080551,23.6189815 9.81128137,23.6189815 9.31450763,23.6189815 C8.94192733,23.6189815 5.83709145,23.4930556 5.09193084,23.4930556 C4.34677023,23.4930556 1.11774092,23.6189815 0.745160611,23.6189815 C0.24838687,23.6189815 0,23.6189815 0,23.3671296 C0,22.9893519 0.620967175,22.9893519 1.36612779,22.7375 C2.35967527,22.4856481 2.85644901,22.3597222 2.98064244,21.3523148 C3.22902931,19.8412037 3.22902931,17.3226852 3.22902931,13.4189815 C3.22902931,10.774537 3.22902931,9.01157407 2.85644901,8.50787037 C2.73225557,8.25601852 2.23548183,8.00416667 1.73870809,8.00416667 C1.11774092,7.87824074 0.620967175,7.87824074 0.620967175,7.62638889 C0.620967175,7.37453704 0.745160611,7.37453704 0.869354046,7.24861111 C2.73225557,6.61898148 4.47096366,5.48564815 6.20967175,3.84861111 C6.33386519,3.72268519 6.58225206,3.47083333 6.83063893,3.47083333 C7.20321924,3.47083333 7.20321924,3.84861111 7.20321924,4.35231481 L7.20321924,6.49305556 C7.20321924,6.74490741 7.32741267,7.12268519 7.45160611,7.12268519 C8.19676672,7.12268519 9.93547481,3.72268519 14.0338582,3.72268519 C16.6419203,3.47083333 18.1322415,4.60416667 19.2499824,5.98935185" id="Fill-12"></path>
                    <path d="M32.6628734,13.6708333 C32.0419063,13.6708333 27.4467492,15.9375 27.4467492,19.2115741 C27.4467492,20.974537 28.8128769,21.7300926 29.8064244,21.7300926 C30.9241653,21.7300926 31.6693259,21.100463 32.4144866,20.0930556 C33.2838406,18.8337963 33.2838406,16.8189815 33.2838406,14.5523148 C33.2838406,13.9226852 33.0354537,13.6708333 32.6628734,13.6708333 M32.9112603,20.7226852 C31.9177128,22.1078704 30.0548113,23.8708333 27.3225557,23.8708333 C24.7144936,23.8708333 23.5967527,21.7300926 23.5967527,20.2189815 C23.5967527,16.9449074 26.825782,15.4337963 29.3096507,14.0486111 C33.2838406,12.0337963 33.408034,12.5375 33.408034,8.25601852 C33.408034,6.99675926 33.5322275,5.98935185 33.1596472,5.48564815 C32.6628734,4.35231481 31.9177128,4.22638889 30.7999719,4.22638889 C27.9435229,4.22638889 27.0741688,6.87083333 26.4532017,9.01157407 C26.2048148,9.89305556 25.0870739,10.3967593 24.3419133,10.3967593 C23.969333,10.3967593 23.3483658,10.1449074 23.3483658,9.38935185 C23.3483658,7.37453704 26.4532017,3.21898148 31.7935194,3.21898148 C34.4015815,3.21898148 37.382224,3.72268519 37.382224,7.12268519 C37.382224,9.89305556 37.0096437,17.1967593 37.0096437,18.5819444 C37.0096437,19.9671296 37.2580305,21.2263889 38.6241583,21.2263889 C39.9902861,21.2263889 40.7354467,20.0930556 40.9838336,20.0930556 C41.108027,20.0930556 41.2322204,20.3449074 41.2322204,20.4708333 C41.2322204,21.2263889 39.6177058,23.6189815 36.8854502,23.6189815 C35.0225487,23.6189815 33.7806143,22.3597222 33.408034,20.974537 C33.408034,20.8486111 33.2838406,20.7226852 33.1596472,20.7226852 C33.0354537,20.5967593 32.9112603,20.7226852 32.9112603,20.7226852" id="Fill-13"></path>
                    <path d="M47.3176988,0.574537037 C47.3176988,1.45601852 47.1935053,2.71527778 47.1935053,3.59675926 C47.1935053,3.97453704 47.3176988,4.22638889 47.6902791,4.22638889 L57.1289801,3.84861111 C57.9983342,3.84861111 58.1225276,3.97453704 58.1225276,4.98194444 C58.1225276,6.87083333 57.9983342,8.6337963 57.9983342,17.3226852 C57.9983342,19.4634259 58.9918817,20.974537 61.9725241,20.974537 C63.5870388,20.974537 65.3257469,20.2189815 65.946714,18.9597222 C66.4434878,18.0782407 66.4434878,15.3078704 66.4434878,13.0412037 C66.4434878,8.38194444 66.4434878,6.11527778 65.946714,5.61157407 C65.5741337,5.2337963 64.8289731,5.10787037 64.0838125,5.10787037 C63.2144585,4.98194444 62.8418782,4.98194444 62.8418782,4.73009259 C62.8418782,4.47824074 62.9660716,4.35231481 63.5870388,4.35231481 L69.920904,4.22638889 C70.6660646,4.22638889 70.790258,4.47824074 70.790258,4.98194444 C70.790258,6.61898148 70.5418711,11.9078704 70.5418711,16.0634259 C70.5418711,18.5819444 70.5418711,20.4708333 70.9144514,20.974537 C71.1628383,21.3523148 71.5354186,21.4782407 72.4047727,21.4782407 C72.6531595,21.4782407 73.3983201,21.3523148 73.646707,21.3523148 C73.7709004,21.3523148 73.8950939,21.4782407 73.8950939,21.6041667 C73.8950939,21.8560185 73.646707,21.9819444 73.1499333,21.9819444 C72.2805792,22.1078704 68.9273565,22.9893519 67.4370353,23.6189815 C67.1886484,23.7449074 66.8160681,23.8708333 66.6918746,23.8708333 C66.4434878,23.8708333 66.3192943,23.6189815 66.3192943,23.1152778 C66.3192943,22.4856481 66.4434878,21.9819444 66.4434878,21.100463 C66.4434878,20.7226852 66.3192943,20.4708333 66.0709075,20.4708333 C65.5741337,20.4708333 63.2144585,23.7449074 59.4886554,23.7449074 C57.2531736,23.7449074 54.0241443,22.4856481 54.0241443,17.9523148 C54.0241443,15.4337963 54.1483377,8.25601852 54.1483377,7.24861111 C54.1483377,5.48564815 54.1483377,5.48564815 50.5467281,5.48564815 C49.4289872,5.48564815 48.4354397,5.48564815 47.8144725,5.61157407 C47.1935053,5.61157407 47.0693119,5.7375 47.0693119,6.74490741 C46.9451185,8.25601852 46.9451185,10.6486111 46.9451185,15.8115741 C46.9451185,17.9523148 46.9451185,19.3375 47.3176988,20.2189815 C47.6902791,20.974537 48.4354397,21.2263889 49.5531806,21.2263889 C51.0435018,21.2263889 52.533823,20.4708333 52.7822099,20.4708333 C52.9064033,20.4708333 53.0305968,20.5967593 53.0305968,20.7226852 C53.0305968,21.100463 50.1741478,23.7449074 47.0693119,23.7449074 C43.7160892,23.7449074 42.9709285,21.2263889 42.9709285,17.8263889 C42.9709285,16.0634259 43.2193154,8.00416667 43.2193154,7.50046296 C43.2193154,6.99675926 43.2193154,6.2412037 42.3499614,6.2412037 L40.9838336,6.2412037 C40.7354467,6.2412037 40.6112533,6.11527778 40.6112533,5.98935185 C40.6112533,5.61157407 40.9838336,5.61157407 41.6048008,5.10787037 C43.095122,4.10046296 45.3306038,2.3375 46.3241513,0.700462963 C46.5725382,0.322685185 46.6967316,0.0708333333 46.9451185,0.0708333333 C47.1935053,0.0708333333 47.3176988,0.196759259 47.3176988,0.574537037" id="Fill-14"></path>
                    <path d="M74.7644479,7.62638889 C74.5160611,7.62638889 74.2676742,7.50046296 74.2676742,7.37453704 C74.2676742,7.12268519 74.5160611,6.99675926 75.1370282,6.74490741 C75.7579954,6.49305556 78.3660575,4.98194444 79.6079919,3.84861111 C80.2289591,3.21898148 80.4773459,3.21898148 80.6015394,3.21898148 C80.8499262,3.21898148 80.9741197,3.34490741 80.9741197,3.97453704 L80.9741197,6.2412037 C80.9741197,6.61898148 81.0983131,6.74490741 81.2225065,6.74490741 C81.8434737,6.74490741 83.3337949,3.34490741 86.3144374,3.34490741 C87.928952,3.34490741 89.046693,4.60416667 89.046693,5.98935185 C89.046693,7.50046296 87.928952,8.38194444 86.6870177,8.38194444 C85.072503,8.38194444 84.6999227,6.61898148 83.2096015,6.61898148 C82.4644409,6.61898148 82.0918606,7.12268519 81.8434737,7.50046296 C81.0983131,8.38194444 80.9741197,10.900463 80.9741197,14.5523148 C80.9741197,17.9523148 80.9741197,20.5967593 81.3467,21.3523148 C81.8434737,22.1078704 83.7063752,22.3597222 84.3273424,22.4856481 C84.8241162,22.6115741 85.1966965,22.4856481 85.1966965,22.9893519 C85.1966965,23.3671296 84.5757293,23.3671296 84.3273424,23.3671296 C84.0789556,23.3671296 80.7257328,23.2412037 79.2354116,23.2412037 C77.8692838,23.2412037 74.8886414,23.3671296 74.5160611,23.3671296 C74.1434807,23.3671296 73.646707,23.3671296 73.646707,22.9893519 C73.646707,22.6115741 74.1434807,22.6115741 74.6402545,22.4856481 C75.0128348,22.3597222 76.3789626,22.1078704 76.6273494,21.3523148 C76.8757363,20.5967593 76.9999298,18.9597222 76.9999298,13.5449074 C76.8757363,8.38194444 76.8757363,7.75231481 74.7644479,7.62638889" id="Fill-15"></path>
                    <path d="M97.7402334,4.22638889 C94.2628172,4.22638889 92.5241091,7.24861111 92.5241091,8.75972222 C92.5241091,9.26342593 93.1450763,9.51527778 95.2563647,9.51527778 C97.7402334,9.51527778 101.21765,9.38935185 101.21765,6.99675926 C101.21765,6.11527778 100.348296,4.22638889 97.7402334,4.22638889 M103.328938,10.774537 C100.596682,10.774537 97.3676531,10.5226852 93.3934632,10.5226852 C92.3999157,10.5226852 91.903142,10.5226852 91.903142,12.4115741 C91.903142,16.9449074 93.8902369,20.974537 98.9821678,20.974537 C102.832164,20.974537 104.446679,18.3300926 104.819259,18.3300926 C105.067646,18.3300926 105.067646,18.4560185 105.067646,18.5819444 C105.067646,19.3375 101.466036,23.7449074 96.7466859,23.7449074 C91.5305617,23.7449074 87.5563717,19.9671296 87.5563717,13.9226852 C87.5563717,7.50046296 92.2757223,3.21898148 97.8644268,3.21898148 C101.96281,3.21898148 105.19184,6.36712963 105.19184,9.6412037 C105.19184,10.774537 104.570872,10.774537 103.328938,10.774537" id="Fill-16"></path>
                </g>
            </g>
        </g>
    </g>
</svg>