<?xml version="1.0" encoding="UTF-8"?>
<svg width="622px" height="82px" viewBox="0 0 622 82" version="1.1" xmlns="http://www.w3.org/2000/svg" xmlns:xlink="http://www.w3.org/1999/xlink">
    <!-- Generator: Sketch 40.3 (33839) - http://www.bohemiancoding.com/sketch -->
    <title>footer</title>
    <desc>Created with Sketch.</desc>
    <defs>
        <ellipse id="path-1" cx="18.8677834" cy="16.9355469" rx="16.8677834" ry="16.9355469"></ellipse>
        <mask id="mask-2" maskContentUnits="userSpaceOnUse" maskUnits="objectBoundingBox" x="0" y="0" width="33.7355667" height="33.8710938" fill="white">
            <use xlink:href="#path-1"></use>
        </mask>
        <ellipse id="path-3" cx="16.8677834" cy="16.9355469" rx="16.8677834" ry="16.9355469"></ellipse>
        <mask id="mask-4" maskContentUnits="userSpaceOnUse" maskUnits="objectBoundingBox" x="0" y="0" width="33.7355667" height="33.8710938" fill="white">
            <use xlink:href="#path-3"></use>
        </mask>
        <polygon id="path-5" points="0 0 192 0 192 44 0 44"></polygon>
        <polygon id="path-7" points="49 16 139 16 139 42 49 42"></polygon>
        <polygon id="path-9" points="0.00971428571 0.0341355932 0.00971428571 15.9779049 18.5743619 15.9779049 18.5743619 0.0341355932 0.00971428571 0.0341355932"></polygon>
    </defs>
    <g id="Symbols" stroke="none" stroke-width="1" fill="none" fill-rule="evenodd">
        <g id="footer">
            <g transform="translate(28.000000, 1.000000)">
                <g id="social-icons" transform="translate(468.000000, 14.000000)">
                    <g id="facebook">
                        <rect id="Rectangle" x="0" y="6" width="33.7355667" height="33.8710938"></rect>
                        <use id="Oval" stroke="#999999" mask="url(#mask-2)" stroke-width="4" xlink:href="#path-1"></use>
                        <path d="M19.8757911,26.9429155 L16.1361545,26.9429155 L16.1361545,18.0891258 L14.2674788,18.0891258 L14.2674788,15.0384069 L16.1361545,15.0384069 L16.1361545,13.206858 C16.1361545,10.7182313 17.1907481,9.23757102 20.1888557,9.23757102 L22.6842319,9.23757102 L22.6842319,12.2894074 L21.1246218,12.2894074 C19.957485,12.2894074 19.8803614,12.7157258 19.8803614,13.5113712 L19.8752198,15.0384069 L22.7013705,15.0384069 L22.370596,18.0891258 L19.8752198,18.0891258 L19.8752198,26.9429155 L19.8757911,26.9429155 Z" id="Shape" fill="#999999"></path>
                    </g>
                    <g id="twitter" transform="translate(47.000000, 0.000000)">
                        <rect id="Rectangle" x="0" y="6" width="33.7355667" height="33.8710938"></rect>
                        <use id="Oval" stroke="#999999" mask="url(#mask-4)" stroke-width="4" xlink:href="#path-3"></use>
                        <path d="M23.4049304,12.9678035 C24.087267,12.5354804 24.6108328,11.849968 24.8565496,11.0333577 C24.2176859,11.4346576 23.5117227,11.7248745 22.7585062,11.881992 C22.1574451,11.2014833 21.2983813,10.7771662 20.3476463,10.7771662 C18.5236716,10.7771662 17.0455905,12.3433368 17.0455905,14.2747804 C17.0455905,14.5489853 17.0729974,14.816185 17.1297013,15.0713758 C14.3852336,14.9252666 11.9516922,13.5342269 10.3214558,11.4166442 C10.0369913,11.9350316 9.87444018,12.5354804 9.87444018,13.1759591 C9.87444018,14.3888657 10.4575451,15.459666 11.3440157,16.0881357 C10.8024936,16.0701223 10.2931038,15.9110033 9.84703331,15.6508089 L9.84703331,15.693841 C9.84703331,17.3891081 10.9848911,18.803165 12.4979396,19.1234043 C12.2200906,19.2054657 11.9290107,19.2464963 11.62659,19.2464963 C11.4139505,19.2464963 11.2060362,19.2254806 11.0056825,19.18445 C11.4252912,20.5734882 12.6453697,21.5862451 14.0913185,21.6132653 C12.9600762,22.5519669 11.5358638,23.1103843 9.988793,23.1103843 C9.72228478,23.1103843 9.45861175,23.0953731 9.20060911,23.0623484 C10.6626241,24.0540896 12.3987078,24.6335227 14.2642653,24.6335227 C20.3410309,24.6335227 23.6619879,19.303539 23.6619879,14.6810841 C23.6619879,14.5289704 23.6600978,14.3778574 23.6534824,14.228746 C24.2989615,13.7353772 24.8603299,13.1189165 25.3016751,12.4173921 C24.7091195,12.6956001 24.072146,12.8837407 23.4049304,12.9678035 Z" id="Shape" fill="#999999"></path>
                    </g>
                </g>
                <g id="nature">
                    <g id="legal">
                        <text id="legal-copy" font-family="Helvetica" font-size="13" font-weight="normal" line-spacing="19" fill="#999999">
                            <tspan x="45" y="55">41,456 newsletter readers</tspan>
                        </text>
                        <g id="url" transform="translate(24.000000, 0.000000)">
                            <mask id="mask-6" fill="white">
                                <use xlink:href="#path-5"></use>
                            </mask>
                            <g id="Mask"></g>
                        </g>
                        <text id="legal-copy-2" font-family="Helvetica" font-size="13" font-weight="normal" line-spacing="19" fill="#999999">
                            <tspan x="344" y="38">Join our community</tspan>
                        </text>
                    </g>
                    <mask id="mask-8" fill="white">
                        <use xlink:href="#path-7"></use>
                    </mask>
                    <g id="Mask"></g>
                </g>
            </g>
            <rect id="hr-copy" fill="#E0E0E0" x="73" y="1" width="498" height="1"></rect>
            <g id="nature.logo\black-copy" transform="translate(73.000000, 19.000000)">
                <g id="Group-3" transform="translate(0.000000, 2.576271)">
                    <mask id="mask-10" fill="white">
                        <use xlink:href="#path-9"></use>
                    </mask>
                    <g id="Clip-2"></g>
                    <path d="M15.4826286,2.16648305 C16.0810286,3.0095678 16.2056952,4.69557627 16.2056952,5.81142373 C16.2056952,8.16694068 16.1807619,9.65473729 16.1807619,10.7209915 C16.1807619,14.9608898 16.1807619,14.8865 17.7016952,15.2832458 C18.0756952,15.3822712 18.5743619,15.4072288 18.5743619,15.6799915 C18.5743619,15.9279576 18.2751619,15.9773898 17.8762286,15.9773898 C17.4772952,15.9773898 15.5077238,15.8534068 14.5851905,15.8534068 C13.6626571,15.8534068 11.568419,15.9773898 11.119619,15.9773898 C10.4962857,15.9773898 10.222019,15.9525932 10.222019,15.7543814 C10.222019,15.4320254 10.9201524,15.456822 11.493619,15.2584492 C12.1917524,15.0106441 12.6405524,14.8369068 12.7650571,13.9440678 C12.8897238,13.0267542 12.8897238,11.7126949 12.8897238,9.15880508 C12.8897238,6.00979661 12.914819,4.15005085 12.1666571,3.28233051 C11.418819,2.41444915 10.6458857,2.16648305 9.34951429,2.16648305 C8.02804762,2.16648305 6.88111429,3.08395763 6.45740952,3.82769492 C5.85900952,4.86915254 5.83407619,7.05109322 5.83407619,9.10921186 C5.83407619,11.8862712 5.85900952,13.2003305 6.05847619,14.1426017 C6.15820952,14.6631695 6.58207619,14.9360932 7.10551429,15.1591017 C7.50444762,15.332678 8.27738095,15.4072288 8.27738095,15.7047881 C8.27738095,16.0023475 7.82858095,15.9773898 7.47951429,15.9773898 C7.13044762,15.9773898 4.71207619,15.8534068 4.08874286,15.8534068 C3.46557143,15.8534068 0.847571429,15.9773898 0.5984,15.9773898 C0.1496,15.9773898 0,15.9525932 0,15.7294237 C0,15.4320254 0.523438095,15.3822712 1.1218381,15.2334915 C1.89477143,15.0352797 2.29370476,14.9112966 2.41837143,14.1426017 C2.59290476,12.977322 2.6178381,10.9687966 2.6178381,7.86954237 C2.6178381,5.7370339 2.6178381,4.39801695 2.29370476,3.97663559 C2.14410476,3.77826271 1.7950381,3.60468644 1.37117143,3.5549322 C0.822638095,3.48070339 0.498666667,3.48070339 0.498666667,3.2575339 C0.498666667,3.05916102 0.5984,3.0095678 0.748,2.95997458 C2.2438381,2.46404237 3.61517143,1.5219322 5.03620952,0.306898305 C5.16087619,0.207711864 5.38527619,0.0341355932 5.55980952,0.0341355932 C5.83407619,0.0341355932 5.88394286,0.356491525 5.88394286,0.753237288 L5.88394286,2.41444915 C5.88394286,2.63761864 5.93380952,2.88558475 6.13311429,2.88558475 C6.73151429,2.88558475 8.15271429,0.182915254 11.418819,0.182915254 C13.4631905,0.182915254 14.6599905,1.02583898 15.4826286,2.16648305" id="Fill-1" fill="#CC0236" mask="url(#mask-10)"></path>
                </g>
                <path d="M26.3024,10.8671949 C25.8286667,10.8671949 22.0638952,12.7021441 22.0638952,15.2312373 C22.0638952,16.6444831 23.1608,17.2148051 23.9836,17.2148051 C24.8562667,17.2148051 25.5294667,16.7188729 26.1029333,15.9007458 C26.7759714,14.933678 26.8507714,13.2724661 26.8507714,11.5615 C26.8507714,11.0407712 26.6762381,10.8671949 26.3024,10.8671949 L26.3024,10.8671949 Z M26.5517333,16.4213136 C25.7538667,17.5619576 24.2329333,18.9008136 22.0888286,18.9008136 C19.9696571,18.9008136 19.1219238,17.2148051 19.1219238,16.0493644 C19.1219238,13.470678 21.7397619,12.2310085 23.7592,11.2141864 C27.0003714,9.60272881 27.0502381,10.0241102 27.0502381,6.62729661 C27.0502381,5.6354322 27.1001048,4.86673729 26.8757048,4.42039831 C26.4270667,3.52788136 25.8286667,3.37910169 24.956,3.37910169 C22.6622952,3.37910169 21.9142952,5.48665254 21.4156286,7.1230678 C21.1912286,7.81737288 20.2936286,8.21411864 19.6704571,8.21411864 C19.3213905,8.21411864 18.8227238,7.96615254 18.8227238,7.39583051 C18.8227238,5.83380508 21.3408286,2.56081356 25.6789048,2.56081356 C27.7483714,2.56081356 30.1418095,2.98235593 30.1418095,5.61063559 C30.1418095,7.76777966 29.8675429,13.5450678 29.8675429,14.6361186 C29.8675429,15.7271695 30.0919429,16.7684661 31.1391429,16.7684661 C32.2360476,16.7684661 32.8344476,15.8509915 33.0588476,15.8509915 C33.2084476,15.8509915 33.2583143,15.9997712 33.2583143,16.1239153 C33.2583143,16.7436695 31.9370095,18.6530085 29.7179429,18.6530085 C28.2221048,18.6530085 27.2497048,17.6613051 26.9006381,16.5700932 C26.8757048,16.4462712 26.8258381,16.3469237 26.7011714,16.3469237 C26.6263714,16.3469237 26.5765048,16.3718814 26.5517333,16.4213136 L26.5517333,16.4213136 Z" id="Fill-4" fill="#CC0236"></path>
                <path d="M38.1424952,0.502694915 C38.1424952,1.17220339 38.0676952,2.21366102 38.0676952,2.9079661 C38.0676952,3.25511864 38.2172952,3.4285339 38.4666286,3.4285339 L46.1206762,3.13113559 C46.8439048,3.10633898 46.918381,3.27991525 46.918381,4.02365254 C46.918381,5.48665254 46.8686762,6.87526271 46.8188095,13.7930339 C46.8188095,15.503839 47.6414476,16.6940763 50.0101143,16.6940763 C51.331419,16.6940763 52.677819,16.074161 53.2263524,15.0824576 C53.6252857,14.3633559 53.650219,12.2310085 53.650219,10.4458136 C53.650219,6.72632203 53.650219,4.91633051 53.2263524,4.54438136 C52.8772857,4.22218644 52.3287524,4.1724322 51.6806476,4.09820339 C50.957581,3.99885593 50.6833143,3.99885593 50.6833143,3.75088983 C50.6833143,3.52788136 50.7830476,3.4285339 51.2817143,3.40389831 L56.3426952,3.27991525 C56.9163238,3.25511864 57.0657619,3.45349153 57.0657619,3.9244661 C57.0657619,5.21388983 56.8164286,9.37939831 56.8164286,12.6523898 C56.8164286,14.6361186 56.8415238,16.0989576 57.0908571,16.5452966 C57.2653905,16.8678136 57.6142952,16.966839 58.3373619,16.966839 C58.5866952,16.966839 59.1601619,16.9172458 59.3097619,16.9172458 C59.4593619,16.9172458 59.5590952,17.0165932 59.5590952,17.1650508 C59.5590952,17.3386271 59.3845619,17.4379746 58.9357619,17.5123644 C58.2625619,17.6363475 55.5451524,18.3056949 54.3732857,18.8017881 C54.1736571,18.8760169 53.8496857,19 53.7747238,19 C53.5255524,19 53.4505905,18.8264237 53.4505905,18.429678 C53.4505905,17.9089492 53.500619,17.4875678 53.500619,16.7932627 C53.500619,16.520339 53.4505905,16.2477373 53.201419,16.2477373 C52.8024857,16.2477373 50.9075524,18.8760169 47.8658476,18.8760169 C46.0460381,18.8760169 43.5028381,17.8347203 43.5028381,14.3136017 C43.5028381,12.3548305 43.6275048,6.6025 43.6275048,5.88339831 C43.6275048,4.46999153 43.5778,4.46999153 40.7603333,4.46999153 C39.8379619,4.46999153 39.0899619,4.49478814 38.5663619,4.51958475 C38.0676952,4.54438136 37.9928952,4.59397458 37.9430286,5.41226271 C37.8682286,6.6519322 37.8183619,8.53647458 37.8183619,12.6277542 C37.8183619,14.3385593 37.7934286,15.3798559 38.1674286,16.074161 C38.5164952,16.6940763 39.0400952,16.9172458 39.9375333,16.9172458 C41.1094,16.9172458 42.381,16.2974915 42.5056667,16.2974915 C42.6303333,16.2974915 42.7051333,16.3718814 42.7051333,16.4710678 C42.7051333,16.7932627 40.3614,18.8760169 37.8682286,18.8760169 C35.1755905,18.8760169 34.5771905,16.8924492 34.5771905,14.1651441 C34.5771905,12.8013305 34.7517238,6.4039661 34.7517238,5.95778814 C34.7517238,5.51144915 34.7267905,4.99072034 34.0037238,4.99072034 L32.906819,4.99072034 C32.757219,4.99072034 32.6325524,4.94112712 32.6325524,4.81714407 C32.6325524,4.49478814 32.9317524,4.46999153 33.4551905,4.09820339 C34.6519905,3.25511864 36.4220952,1.86650847 37.2698286,0.602042373 C37.4692952,0.304483051 37.5690286,0.0565169492 37.7934286,0.0565169492 C38.0178286,0.0565169492 38.1424952,0.20529661 38.1424952,0.502694915" id="Fill-5" fill="#CC0236"></path>
                <path d="M60.2567429,6.08177119 C60.0326667,6.05697458 59.8578095,6.00738136 59.8578095,5.88339831 C59.8578095,5.66022881 60.0823714,5.58583898 60.5311714,5.41226271 C61.0546095,5.21388983 63.1491714,4.04844915 64.0964762,3.13113559 C64.5700476,2.66 64.7695143,2.61040678 64.9191143,2.61040678 C65.0936476,2.61040678 65.2683429,2.73438983 65.2683429,3.20552542 L65.2683429,4.99072034 C65.2683429,5.31307627 65.3680762,5.36266949 65.4676476,5.36266949 C65.9663143,5.36266949 67.1878857,2.70959322 69.5565524,2.70959322 C70.9027905,2.70959322 71.7754571,3.6765 71.7754571,4.84194068 C71.7754571,6.03217797 70.8778571,6.77591525 69.8555905,6.77591525 C68.5093524,6.77591525 68.2352476,5.3874661 67.0135143,5.3874661 C66.390181,5.3874661 66.1408476,5.83380508 65.9164476,6.08177119 C65.2932762,6.77591525 65.2432476,8.75964407 65.2432476,11.6606864 C65.2432476,14.3633559 65.193381,16.4710678 65.5426095,16.9916356 C65.9415429,17.6115508 67.4870857,17.8347203 67.960819,17.9339068 C68.3597524,18.0082966 68.6838857,17.9835 68.6838857,18.3056949 C68.6838857,18.553661 68.2101524,18.553661 67.9360476,18.553661 C67.661781,18.553661 64.9939143,18.429678 63.8719143,18.429678 C62.7500762,18.429678 60.3315429,18.553661 60.0326667,18.553661 C59.7333048,18.553661 59.3096,18.5288644 59.3096,18.3056949 C59.3096,18.0330932 59.7333048,17.9835 60.1073048,17.8841525 C60.4063429,17.8097627 61.5283429,17.5869153 61.7529048,16.966839 C61.9771429,16.3469237 62.0270095,15.0327034 62.0270095,10.8174407 C62.0270095,6.6025 61.9522095,6.18095763 60.2567429,6.08177119" id="Fill-6" fill="#CC0236"></path>
                <path d="M78.806819,3.32950847 C76.039219,3.32950847 74.6431143,5.70982203 74.6431143,6.92469492 C74.6431143,7.3710339 75.141781,7.49501695 76.8370857,7.49501695 C78.8317524,7.49501695 81.6239619,7.34623729 81.6239619,5.53624576 C81.6239619,4.84194068 80.9008952,3.32950847 78.806819,3.32950847 L78.806819,3.32950847 Z M83.3691333,8.53647458 C81.2002571,8.53647458 78.5323905,8.33810169 75.3909524,8.33810169 C74.5683143,8.33810169 74.2192476,8.36289831 74.2192476,9.87549153 C74.2192476,13.4954746 75.814819,16.6692797 79.9037238,16.6692797 C82.9703619,16.6692797 84.3166,14.5369322 84.5659333,14.5369322 C84.7654,14.5369322 84.8152667,14.6361186 84.8152667,14.7601017 C84.8152667,15.3798559 81.8982286,18.8760169 78.058819,18.8760169 C73.8951143,18.8760169 70.6539429,15.8509915 70.6539429,11.0657288 C70.6539429,6.03217797 74.4935143,2.56081356 78.9811905,2.56081356 C82.3220952,2.56081356 84.8651333,5.06511017 84.8651333,7.619 C84.8651333,8.53647458 84.3664667,8.53647458 83.3691333,8.53647458 L83.3691333,8.53647458 Z" id="Fill-7" fill="#CC0236"></path>
            </g>
        </g>
    </g>
</svg>