<?xml version="1.0" encoding="UTF-8"?>
<svg width="112px" height="26px" viewBox="0 0 112 26" version="1.1" xmlns="http://www.w3.org/2000/svg" xmlns:xlink="http://www.w3.org/1999/xlink">
    <!-- Generator: Sketch 40.3 (33839) - http://www.bohemiancoding.com/sketch -->
    <title>Share icons</title>
    <desc>Created with Sketch.</desc>
    <defs></defs>
    <g id="Symbols" stroke="none" stroke-width="1" fill="none" fill-rule="evenodd">
        <g id="Share-icons">
            <g>
                <g id="Group-2" transform="translate(45.000000, 8.000000)" fill="#999999">
                    <g id="Group">
                        <polygon id="Shape" points="12.6 6.93333333 20 12.5883333 20 0.455"></polygon>
                        <path d="M19.3,12.9133333 L12.08,7.38833333 L10.2,9.035 C10.14,9.07833333 10.06,9.12166667 10,9.12166667 C9.94,9.12166667 9.86,9.1 9.8,9.035 L7.92,7.38833333 L0.7,12.9133333 L19.3,12.9133333 L19.3,12.9133333 Z" id="Shape"></path>
                        <polygon id="Shape" points="7.4 6.93333333 0 0.455 0 12.5883333"></polygon>
                        <polygon id="Shape" points="10 8.29833333 19.4 0.0866666667 0.6 0.0866666667"></polygon>
                    </g>
                </g>
                <path d="M90.2043212,9.19063733 C90.8866579,8.7583142 91.4102237,8.07280183 91.6559405,7.25619148 C91.0170768,7.65749142 90.3111136,7.94770834 89.557897,8.10482577 C88.9568359,7.42431714 88.0977722,7 87.1470372,7 C85.3230625,7 83.8449814,8.56617059 83.8449814,10.4976142 C83.8449814,10.7718191 83.8723883,11.0390188 83.9290922,11.2942096 C81.1846245,11.1481004 78.7510831,9.75706069 77.1208466,7.63947796 C76.8363822,8.15786541 76.6738311,8.7583142 76.6738311,9.39879291 C76.6738311,10.6116995 77.2569359,11.6824998 78.1434066,12.3109695 C77.6018845,12.2929561 77.0924947,12.1338371 76.6464242,11.8736427 L76.6464242,11.9166748 C76.6464242,13.6119419 77.784282,15.0259988 79.2973305,15.3462382 C79.0194815,15.4282995 78.7284016,15.4693302 78.4259809,15.4693302 C78.2133413,15.4693302 78.0054271,15.4483144 77.8050734,15.4072838 C78.2246821,16.796322 79.4447605,17.8090789 80.8907094,17.8360991 C79.7594671,18.7748007 78.3352547,19.3332181 76.7881839,19.3332181 C76.5216757,19.3332181 76.2580026,19.3182069 76,19.2851822 C77.462015,20.2769235 79.1980987,20.8563565 81.0636562,20.8563565 C87.1404217,20.8563565 90.4613788,15.5263728 90.4613788,10.9039179 C90.4613788,10.7518042 90.4594887,10.6006912 90.4528732,10.4515798 C91.0983524,9.95821103 91.6597208,9.34175027 92.1010659,8.64022594 C91.5085104,8.91843388 90.8715369,9.1065745 90.2043212,9.19063733 Z" id="Shape" fill="#999999"></path>
                <path d="M105.23948,21.7053445 L105.23948,13.3516179 L103.476347,13.3516179 L103.476347,10.4732039 L105.23948,10.4732039 L105.23948,8.74510121 C105.23948,6.3970324 106.23451,5 109.063284,5 L111.417721,5 L111.417721,7.8794683 L109.946198,7.8794683 C108.844981,7.8794683 108.772214,8.28170819 108.772214,9.03241542 L108.767362,10.4732039 L111.433892,10.4732039 L111.121799,13.3516179 L108.767362,13.3516179 L108.767362,21.7053445 L105.23948,21.7053445 Z" id="Shape" fill="#999999"></path>
                <text id="paragraph-copy-8" font-family="SourceSansPro-Regular, Source Sans Pro" font-size="14" font-weight="normal" line-spacing="26" fill="#9B9B9B">
                    <tspan x="0" y="14">Share</tspan>
                </text>
            </g>
        </g>
    </g>
</svg>