<?xml version="1.0" encoding="UTF-8"?>
<svg width="133px" height="82px" viewBox="0 0 133 82" version="1.1" xmlns="http://www.w3.org/2000/svg" xmlns:xlink="http://www.w3.org/1999/xlink">
    <!-- Generator: Sketch 40.3 (33839) - http://www.bohemiancoding.com/sketch -->
    <title>social circle icons</title>
    <desc>Created with Sketch.</desc>
    <defs>
        <ellipse id="path-1" cx="41.8677834" cy="37.9355469" rx="16.8677834" ry="16.9355469"></ellipse>
        <mask id="mask-2" maskContentUnits="userSpaceOnUse" maskUnits="objectBoundingBox" x="0" y="0" width="33.7355667" height="33.8710938" fill="white">
            <use xlink:href="#path-1"></use>
        </mask>
        <ellipse id="path-3" cx="86.8677834" cy="37.9355469" rx="16.8677834" ry="16.9355469"></ellipse>
        <mask id="mask-4" maskContentUnits="userSpaceOnUse" maskUnits="objectBoundingBox" x="0" y="0" width="33.7355667" height="33.8710938" fill="white">
            <use xlink:href="#path-3"></use>
        </mask>
    </defs>
    <g id="Style-Guide" stroke="none" stroke-width="1" fill="none" fill-rule="evenodd">
        <g id="social-circle-icons">
            <use id="Oval" stroke="#78787E" mask="url(#mask-2)" stroke-width="4" fill="#FFFFFF" xlink:href="#path-1"></use>
            <path d="M42.6083123,47.7053445 L38.8686757,47.7053445 L38.8686757,38.8515548 L37,38.8515548 L37,35.8008358 L38.8686757,35.8008358 L38.8686757,33.969287 C38.8686757,31.4806603 39.9232692,30 42.9213769,30 L45.4167531,30 L45.4167531,33.0518364 L43.857143,33.0518364 C42.6900062,33.0518364 42.6128826,33.4781548 42.6128826,34.2738002 L42.607741,35.8008358 L45.4338917,35.8008358 L45.1031172,38.8515548 L42.607741,38.8515548 L42.607741,47.7053445 L42.6083123,47.7053445 Z" id="Shape" fill="#78787E"></path>
            <use id="Oval" stroke="#78787E" mask="url(#mask-4)" stroke-width="4" fill="#FFFFFF" xlink:href="#path-3"></use>
            <path d="M93.2043212,33.1906373 C93.8866579,32.7583142 94.4102237,32.0728018 94.6559405,31.2561915 C94.0170768,31.6574914 93.3111136,31.9477083 92.557897,32.1048258 C91.9568359,31.4243171 91.0977722,31 90.1470372,31 C88.3230625,31 86.8449814,32.5661706 86.8449814,34.4976142 C86.8449814,34.7718191 86.8723883,35.0390188 86.9290922,35.2942096 C84.1846245,35.1481004 81.7510831,33.7570607 80.1208466,31.639478 C79.8363822,32.1578654 79.6738311,32.7583142 79.6738311,33.3987929 C79.6738311,34.6116995 80.2569359,35.6824998 81.1434066,36.3109695 C80.6018845,36.2929561 80.0924947,36.1338371 79.6464242,35.8736427 L79.6464242,35.9166748 C79.6464242,37.6119419 80.784282,39.0259988 82.2973305,39.3462382 C82.0194815,39.4282995 81.7284016,39.4693302 81.4259809,39.4693302 C81.2133413,39.4693302 81.0054271,39.4483144 80.8050734,39.4072838 C81.2246821,40.796322 82.4447605,41.8090789 83.8907094,41.8360991 C82.7594671,42.7748007 81.3352547,43.3332181 79.7881839,43.3332181 C79.5216757,43.3332181 79.2580026,43.3182069 79,43.2851822 C80.462015,44.2769235 82.1980987,44.8563565 84.0636562,44.8563565 C90.1404217,44.8563565 93.4613788,39.5263728 93.4613788,34.9039179 C93.4613788,34.7518042 93.4594887,34.6006912 93.4528732,34.4515798 C94.0983524,33.958211 94.6597208,33.3417503 95.1010659,32.6402259 C94.5085104,32.9184339 93.8715369,33.1065745 93.2043212,33.1906373 Z" id="Shape" fill="#78787E"></path>
        </g>
    </g>
</svg>